<svg xmlns="http://www.w3.org/2000/svg" width="172.996" height="206.004" viewBox="0 0 172.996 206.004">
  <g id="Vector_Smart_Object" data-name="Vector Smart Object" transform="translate(-653.002 -1569.998)">
    <g id="Vector_Smart_Object-2" data-name="Vector Smart Object" transform="translate(-3289.686 -5211.387)">
      <g id="Group_1" data-name="Group 1">
        <path id="Path_10" data-name="Path 10" d="M4065.5,6817.936h11.348c7.319,0,11.94,6.682,11.94,13.991v114.822c0,7.31-5.044,14.058-12.363,14.058h-94.9c-7.32,0-12.506-6.748-12.506-14.058V6831.927c0-7.31,5.729-13.991,13.048-13.991h13.567" fill="none" stroke="#4472e9" stroke-linecap="round" stroke-linejoin="round" stroke-width="6.65"/>
        <line id="Line_11" data-name="Line 11" x2="66.538" transform="translate(3995.635 6851.161)" fill="none" stroke="#4472e9" stroke-linecap="round" stroke-linejoin="round" stroke-width="6.654"/>
        <line id="Line_12" data-name="Line 12" x2="66.538" transform="translate(3995.635 6877.742)" fill="none" stroke="#4472e9" stroke-linecap="round" stroke-linejoin="round" stroke-width="6.654"/>
        <line id="Line_13" data-name="Line 13" x2="66.538" transform="translate(3995.635 6904.323)" fill="none" stroke="#4472e9" stroke-linecap="round" stroke-linejoin="round" stroke-width="6.654"/>
        <line id="Line_14" data-name="Line 14" x2="36.596" transform="translate(3995.635 6930.903)" fill="none" stroke="#4472e9" stroke-linecap="round" stroke-linejoin="round" stroke-width="6.654"/>
      </g>
      <path id="Path_11" data-name="Path 11" d="M4062.455,6794.677h49.9v189.387H3946.013V6794.677h46.576" fill="none" stroke="#4472e9" stroke-linecap="round" stroke-linejoin="round" stroke-width="6.65"/>
      <path id="Path_12" data-name="Path 12" d="M3995.917,6784.709v40.237h22.008a12.374,12.374,0,1,1,24.406,0h20.125v-40.237Z" fill="none" stroke="#4472e9" stroke-linecap="round" stroke-linejoin="round" stroke-width="6.65"/>
    </g>
  </g>
</svg>
