<svg xmlns="http://www.w3.org/2000/svg" width="48.124" height="91.872" viewBox="0 0 48.124 91.872">
  <g id="Vector_Smart_Object" data-name="Vector Smart Object" transform="translate(-754.938 -5282.064)">
    <g id="Vector_Smart_Object-2" data-name="Vector Smart Object" transform="translate(208.143 3123.68)">
      <g id="icons">
        <path id="Path_4" data-name="Path 4" d="M593.143,2165.68c0-3.987-1.426-5.52-5-5.52H553.86c-3.715,0-5.289,1.533-5.289,5.52v73.6c0,3.833,1.289,9.2,5.289,9.2h34.286c4,0,5-5.45,5-9.2Z" fill="rgba(0,0,0,0)" stroke="#4472e9" stroke-linecap="round" stroke-linejoin="round" stroke-width="3.552"/>
        <rect id="Rectangle_3" data-name="Rectangle 3" width="44.571" height="57.04" transform="translate(548.571 2173.04)" fill="rgba(0,0,0,0)" stroke="#4472e9" stroke-linecap="round" stroke-linejoin="round" stroke-width="3.552"/>
        <line id="Line_6" data-name="Line 6" transform="translate(571.003 2239.28)" fill="none" stroke="#4472e9" stroke-linecap="round" stroke-linejoin="round" stroke-width="5.143"/>
      </g>
    </g>
    <path id="Gradient_Overlay" data-name="Gradient Overlay" d="M762,5372.161c-4,0-5.288-5.369-5.288-9.2v-73.6c0-3.987,1.573-5.52,5.288-5.52h34.286c3.571,0,5,1.533,5,5.52v73.6c0,3.749-1,9.2-5,9.2Z" fill="none" opacity="0.21"/>
  </g>
</svg>
