<svg xmlns="http://www.w3.org/2000/svg" width="192" height="192" viewBox="0 0 192 192">
  <g id="Vector_Smart_Object" data-name="Vector Smart Object" transform="translate(-415.487 -1332)">
    <g id="Group_9" data-name="Group 9">
      <circle id="Ellipse_5" data-name="Ellipse 5" cx="93" cy="93" r="93" transform="translate(418.487 1335)" fill="none" stroke="#4472e9" stroke-linecap="round" stroke-linejoin="round" stroke-width="6"/>
    </g>
    <g id="Group_10" data-name="Group 10">
      <rect id="Rectangle_7" data-name="Rectangle 7" width="71.25" height="50.25" rx="4.649" transform="translate(476.25 1414.5)" fill="none" stroke="#4472e9" stroke-linecap="round" stroke-linejoin="round" stroke-width="6"/>
      <path id="Path_26" data-name="Path 26" d="M536.25,1414.5V1401c0-10.61-11.35-21.3-24.375-21.3h0c-13.025,0-24.375,10.691-24.375,21.3v13.5" fill="none" stroke="#4472e9" stroke-linecap="round" stroke-linejoin="round" stroke-width="6"/>
      <path id="Path_27" data-name="Path 27" d="M520.539,1435.621c0-4.922-2.548-7.032-7.294-7.032s-8.045,1.933-8.045,7.032c0,3.237,1.8,4.528,1.8,5.626v4.219c0,1.778,1.464,4.22,5.625,4.22,4.043,0,5.625-2.442,5.625-4.22v-4.219C518.25,1440.149,520.539,1438.771,520.539,1435.621Z" fill="none" stroke="#4472e9" stroke-linecap="round" stroke-linejoin="round" stroke-width="6"/>
    </g>
  </g>
</svg>
