<svg xmlns="http://www.w3.org/2000/svg" width="202" height="202" viewBox="0 0 202 202">
  <g id="Vector_Smart_Object" data-name="Vector Smart Object" transform="translate(-437.127 -1401.375)">
    <path id="Path_24" data-name="Path 24" d="M573.74,1485.7H554.8v-18.938c0-3.862-2.438-7.39-6.3-7.39H528.335c-3.862,0-6.884,3.529-6.884,7.39V1485.7h-18.9c-3.862,0-7.427,2.736-7.427,6.6v20.23c0,3.862,3.565,6.522,7.427,6.522h18.9v18.9c0,3.862,2.737,7.427,6.6,7.427H548.28c3.861,0,6.522-3.565,6.522-7.427v-18.9H573.74c3.862,0,7.391-2.439,7.391-6.3v-20.166C581.131,1488.722,577.6,1485.7,573.74,1485.7Z" fill="none" stroke="#4472e9" stroke-linecap="round" stroke-linejoin="round" stroke-width="6.313"/>
    <g id="Group_7" data-name="Group 7">
      <circle id="Ellipse_3" data-name="Ellipse 3" cx="97.844" cy="97.844" r="97.844" transform="translate(440.283 1404.531)" fill="none" stroke="#4472e9" stroke-linecap="round" stroke-linejoin="round" stroke-width="6.313"/>
    </g>
  </g>
</svg>
