<svg xmlns="http://www.w3.org/2000/svg" width="323.836" height="85.039" viewBox="0 0 323.836 85.039">
  <g id="Group_72" data-name="Group 72" transform="translate(-135.72 -377.008)">
    <path id="Path_153" data-name="Path 153" d="M181.746,377.008a38.356,38.356,0,0,0-13.833,2.574,36.4,36.4,0,0,1,25.5,62.186A49.641,49.641,0,0,0,220.1,417.984c.052-.838.09-1.68.09-2.533A38.442,38.442,0,0,0,181.746,377.008Z" fill="#afbd00"/>
    <path id="Path_154" data-name="Path 154" d="M167.66,442.711a36.283,36.283,0,0,1-16.971-22.17,49.646,49.646,0,0,0,7.255,35c.7.466,1.41.919,2.148,1.346a38.45,38.45,0,0,0,57.2-27.339A36.4,36.4,0,0,1,167.66,442.711Z" fill="#008fdb"/>
    <path id="Path_155" data-name="Path 155" d="M163.443,397.605a36.277,36.277,0,0,1,27.684-3.612,49.651,49.651,0,0,0-33.94-11.22c-.752.373-1.5.762-2.239,1.188a38.446,38.446,0,0,0-4.925,63.209A36.405,36.405,0,0,1,163.443,397.605Z" fill="#00418e"/>
    <g id="Group_71" data-name="Group 71">
      <path id="Path_156" data-name="Path 156" d="M304.094,438.06a12.866,12.866,0,0,0-8.231,2.834,12.014,12.014,0,0,0,8.129,21.153,12.539,12.539,0,0,0,8.334-2.835,11.983,11.983,0,0,0,4.217-9.143,11.809,11.809,0,0,0-3.24-8.23A12.1,12.1,0,0,0,304.094,438.06Zm0,18.319a6.326,6.326,0,1,1,6.341-6.343A6.328,6.328,0,0,1,304.094,456.379Z" fill="#008fdb"/>
      <path id="Path_157" data-name="Path 157" d="M259.01,440.623c-1.45-1.383-3-1.888-5.633-1.888H244.1v22.5h5.835v-7.49h3.643c2.7,0,4.555-.675,5.8-2.092a8.149,8.149,0,0,0,1.822-5.464A7.293,7.293,0,0,0,259.01,440.623Zm-7.153,8.435h-1.922v-5.635h1.958c2.158,0,3.2.946,3.2,2.836C255.1,448.181,254.084,449.058,251.857,449.058Z" fill="#008fdb"/>
      <path id="Path_158" data-name="Path 158" d="M440.9,438.735v4.959h4.758v17.543h5.836V443.694h4.857v-4.959Z" fill="#008fdb"/>
      <path id="Path_159" data-name="Path 159" d="M404.108,452.5l-10.762-13.764h-5.834v22.5h5.834V447.472l10.762,13.766h5.838v-22.5h-5.838Z" fill="#008fdb"/>
      <rect id="Rectangle_53" data-name="Rectangle 53" width="5.836" height="22.502" transform="translate(348.605 438.735)" fill="#008fdb"/>
    </g>
    <path id="Path_160" data-name="Path 160" d="M263.027,396.041c-5.263-1.553-5.67-1.756-7.019-2.835a2.955,2.955,0,0,1-1.08-2.227c0-2.228,2.16-3.914,4.994-3.914a11.9,11.9,0,0,1,7.7,3.037l4.656-9.112a31.207,31.207,0,0,0-14.24-3.644c-9.111,0-15.322,6.141-15.322,15.185,0,3.983,1.217,6.951,3.578,8.909,1.619,1.35,3.578,2.16,8.572,3.645,5.467,1.62,7.02,2.767,7.02,5.2,0,2.632-2.229,4.386-5.67,4.386s-6.75-1.484-10.326-4.588l-4.994,9.448a27.633,27.633,0,0,0,15.589,5.062c5.2,0,9.788-1.484,13.026-4.252,3.039-2.632,4.59-6.547,4.59-11.676C274.1,401.98,270.857,398.336,263.027,396.041Zm18.424,27.4h11.676V378.425H281.451Zm42.99-15.861h9.584a9.075,9.075,0,0,1-1.619,4.522,9.331,9.331,0,0,1-7.627,3.307,10.38,10.38,0,0,1-7.965-3.239,16.049,16.049,0,0,1-4.048-10.935c0-8.1,4.994-14.105,11.675-14.105,4.524,0,7.627,2.294,9.653,7.153L345.23,389.7c-4.253-8.638-10.664-12.688-20.248-12.688-14.511,0-24.433,9.787-24.433,24.162,0,14.174,9.787,23.893,24.027,23.893,9.652,0,17.01-4.523,20.721-12.756,1.621-3.577,2.226-7.222,2.363-13.836H324.441Zm66.544-29.157-9.65,24.027-9.111-24.027H360.682l-7.625,45.018h11.609l3.845-25.918L378.9,423.443h4.656l10.868-25.918,3.306,25.918h11.676l-6.75-45.018Zm51.629,0H429.856l-17.275,45.018h12.35l3.1-7.83h16.133l2.9,7.83h12.487Zm-11.34,28.28,4.928-14.376,4.791,14.376Z" fill="#00418e"/>
  </g>
</svg>
